<?xml version="1.0" encoding="utf-8" standalone="no"?>
<!DOCTYPE svg PUBLIC "-//W3C//DTD SVG 1.1//EN"
  "http://www.w3.org/Graphics/SVG/1.1/DTD/svg11.dtd">
<!-- Created with matplotlib (https://matplotlib.org/) -->
<svg height="360pt" version="1.1" viewBox="0 0 576 360" width="576pt" xmlns="http://www.w3.org/2000/svg" xmlns:xlink="http://www.w3.org/1999/xlink">
 <defs>
  <style type="text/css">
*{stroke-linecap:butt;stroke-linejoin:round;}
  </style>
 </defs>
 <g id="figure_1">
  <g id="patch_1">
   <path d="M 0 360 
L 576 360 
L 576 0 
L 0 0 
z
" style="fill:#ffffff;"/>
  </g>
  <g id="axes_1">
   <g id="patch_2">
    <path d="M 72 315 
L 518.4 315 
L 518.4 43.2 
L 72 43.2 
z
" style="fill:#ffffff;"/>
   </g>
   <g id="PolyCollection_1">
    <defs>
     <path d="M 92.290909 -81.776321 
L 92.290909 -187.125159 
L 102.696503 -251.771036 
L 113.102098 -233.574419 
L 123.507692 -238.84186 
L 133.913287 -215.85666 
L 144.318881 -225.433827 
L 154.724476 -262.784778 
L 165.13007 -188.561734 
L 175.535664 -237.884144 
L 185.941259 -246.024736 
L 196.346853 -282.41797 
L 206.752448 -229.743552 
L 217.158042 -231.180127 
L 227.563636 -259.43277 
L 237.969231 -268.531078 
L 248.374825 -216.335518 
L 258.78042 -249.376744 
L 269.186014 -218.250951 
L 279.591608 -233.09556 
L 289.997203 -239.320719 
L 300.402797 -221.60296 
L 310.808392 -213.941226 
L 321.213986 -227.828118 
L 331.61958 -258.475053 
L 342.025175 -293.431712 
L 352.430769 -259.43277 
L 362.836364 -263.263636 
L 373.241958 -248.419027 
L 383.647552 -251.292178 
L 394.053147 -291.037421 
L 404.458741 -291.516279 
L 414.864336 -263.263636 
L 425.26993 -294.868288 
L 435.675524 -284.812262 
L 446.081119 -245.067019 
L 456.486713 -238.84186 
L 466.892308 -304.445455 
L 477.297902 -281.460254 
L 487.703497 -241.715011 
L 498.109091 -286.727696 
L 498.109091 -141.633615 
L 498.109091 -141.633615 
L 487.703497 -116.254123 
L 477.297902 -148.337632 
L 466.892308 -124.873573 
L 456.486713 -123.436998 
L 446.081119 -98.536364 
L 435.675524 -126.789006 
L 425.26993 -98.536364 
L 414.864336 -144.985624 
L 404.458741 -134.45074 
L 394.053147 -138.760465 
L 383.647552 -140.19704 
L 373.241958 -108.592389 
L 362.836364 -102.846089 
L 352.430769 -89.916913 
L 342.025175 -136.366173 
L 331.61958 -116.254123 
L 321.213986 -130.141015 
L 310.808392 -123.915856 
L 300.402797 -106.676956 
L 289.997203 -106.676956 
L 279.591608 -118.169556 
L 269.186014 -108.592389 
L 258.78042 -116.732981 
L 248.374825 -112.902114 
L 237.969231 -106.198097 
L 227.563636 -88.00148 
L 217.158042 -102.846089 
L 206.752448 -91.353488 
L 196.346853 -85.607188 
L 185.941259 -111.944397 
L 175.535664 -97.578647 
L 165.13007 -89.916913 
L 154.724476 -126.789006 
L 144.318881 -105.240381 
L 133.913287 -107.155814 
L 123.507692 -100.930655 
L 113.102098 -109.071247 
L 102.696503 -89.438055 
L 92.290909 -81.776321 
z
" id="mce19cddfed" style="stroke:#ffa500;stroke-opacity:0.2;"/>
    </defs>
    <g clip-path="url(#p7d7191174f)">
     <use style="fill:#ffa500;fill-opacity:0.2;stroke:#ffa500;stroke-opacity:0.2;" x="0" xlink:href="#mce19cddfed" y="360"/>
    </g>
   </g>
   <g id="PolyCollection_2">
    <defs>
     <path d="M 92.290909 -63.100846 
L 92.290909 -174.195983 
L 102.696503 -199.096617 
L 113.102098 -208.673784 
L 123.507692 -209.631501 
L 133.913287 -196.223467 
L 144.318881 -223.039535 
L 154.724476 -222.081818 
L 165.13007 -209.152643 
L 175.535664 -225.912685 
L 185.941259 -230.22241 
L 196.346853 -248.419027 
L 206.752448 -207.237209 
L 217.158042 -226.391543 
L 227.563636 -239.799577 
L 237.969231 -267.094503 
L 248.374825 -243.630444 
L 258.78042 -263.742495 
L 269.186014 -249.376744 
L 279.591608 -266.136786 
L 289.997203 -218.72981 
L 300.402797 -272.840803 
L 310.808392 -233.09556 
L 321.213986 -247.940169 
L 331.61958 -239.320719 
L 342.025175 -246.024736 
L 352.430769 -278.587104 
L 352.430769 -120.563848 
L 352.430769 -120.563848 
L 342.025175 -130.141015 
L 331.61958 -116.732981 
L 321.213986 -134.45074 
L 310.808392 -107.634672 
L 300.402797 -118.169556 
L 289.997203 -120.563848 
L 279.591608 -110.986681 
L 269.186014 -117.211839 
L 258.78042 -109.550106 
L 248.374825 -110.507822 
L 237.969231 -103.803805 
L 227.563636 -115.296406 
L 217.158042 -100.451797 
L 206.752448 -107.634672 
L 196.346853 -114.817548 
L 185.941259 -102.846089 
L 175.535664 -101.409514 
L 165.13007 -103.324947 
L 154.724476 -91.832347 
L 144.318881 -89.916913 
L 133.913287 -60.227696 
L 123.507692 -98.536364 
L 113.102098 -97.578647 
L 102.696503 -73.635729 
L 92.290909 -63.100846 
z
" id="m98a5830258" style="stroke:#ff0000;stroke-opacity:0.2;"/>
    </defs>
    <g clip-path="url(#p7d7191174f)">
     <use style="fill:#ff0000;fill-opacity:0.2;stroke:#ff0000;stroke-opacity:0.2;" x="0" xlink:href="#m98a5830258" y="360"/>
    </g>
   </g>
   <g id="PolyCollection_3">
    <defs>
     <path d="M 92.290909 -57.354545 
L 92.290909 -230.701268 
L 102.696503 -225.433827 
L 113.102098 -195.265751 
L 123.507692 -213.941226 
L 133.913287 -230.22241 
L 144.318881 -212.504651 
L 154.724476 -218.72981 
L 165.13007 -197.181184 
L 175.535664 -205.321776 
L 185.941259 -202.927484 
L 196.346853 -211.546934 
L 206.752448 -220.166385 
L 217.158042 -226.870402 
L 227.563636 -229.264693 
L 237.969231 -196.702326 
L 248.374825 -200.533192 
L 258.78042 -218.72981 
L 269.186014 -205.800634 
L 279.591608 -272.840803 
L 289.997203 -235.96871 
L 300.402797 -264.700211 
L 310.808392 -255.601903 
L 321.213986 -231.180127 
L 331.61958 -240.757294 
L 342.025175 -221.124101 
L 352.430769 -247.940169 
L 362.836364 -257.996195 
L 373.241958 -229.264693 
L 383.647552 -205.800634 
L 394.053147 -217.293235 
L 404.458741 -260.869345 
L 414.864336 -259.43277 
L 425.26993 -235.96871 
L 435.675524 -237.884144 
L 446.081119 -251.771036 
L 446.081119 -111.465539 
L 446.081119 -111.465539 
L 435.675524 -130.619873 
L 425.26993 -111.944397 
L 414.864336 -103.324947 
L 404.458741 -100.451797 
L 394.053147 -76.508879 
L 383.647552 -109.071247 
L 373.241958 -88.480338 
L 362.836364 -128.70444 
L 352.430769 -116.254123 
L 342.025175 -109.071247 
L 331.61958 -93.74778 
L 321.213986 -115.296406 
L 310.808392 -102.36723 
L 300.402797 -113.859831 
L 289.997203 -94.226638 
L 279.591608 -81.297463 
L 269.186014 -91.353488 
L 258.78042 -96.62093 
L 248.374825 -102.846089 
L 237.969231 -118.648414 
L 227.563636 -89.438055 
L 217.158042 -83.691755 
L 206.752448 -88.00148 
L 196.346853 -83.691755 
L 185.941259 -84.649471 
L 175.535664 -102.36723 
L 165.13007 -90.395772 
L 154.724476 -89.916913 
L 144.318881 -92.311205 
L 133.913287 -82.734038 
L 123.507692 -103.803805 
L 113.102098 -80.339746 
L 102.696503 -87.522622 
L 92.290909 -57.354545 
z
" id="m1cd68d810a" style="stroke:#0000ff;stroke-opacity:0.2;"/>
    </defs>
    <g clip-path="url(#p7d7191174f)">
     <use style="fill:#0000ff;fill-opacity:0.2;stroke:#0000ff;stroke-opacity:0.2;" x="0" xlink:href="#m1cd68d810a" y="360"/>
    </g>
   </g>
   <g id="matplotlib.axis_1">
    <g id="xtick_1">
     <g id="line2d_1">
      <defs>
       <path d="M 0 0 
L 0 3.5 
" id="m4a64352fa3" style="stroke:#000000;stroke-width:0.8;"/>
      </defs>
      <g>
       <use style="stroke:#000000;stroke-width:0.8;" x="92.290909" xlink:href="#m4a64352fa3" y="315"/>
      </g>
     </g>
     <g id="text_1">
      <!-- 0 -->
      <defs>
       <path d="M 31.78125 66.40625 
Q 24.171875 66.40625 20.328125 58.90625 
Q 16.5 51.421875 16.5 36.375 
Q 16.5 21.390625 20.328125 13.890625 
Q 24.171875 6.390625 31.78125 6.390625 
Q 39.453125 6.390625 43.28125 13.890625 
Q 47.125 21.390625 47.125 36.375 
Q 47.125 51.421875 43.28125 58.90625 
Q 39.453125 66.40625 31.78125 66.40625 
z
M 31.78125 74.21875 
Q 44.046875 74.21875 50.515625 64.515625 
Q 56.984375 54.828125 56.984375 36.375 
Q 56.984375 17.96875 50.515625 8.265625 
Q 44.046875 -1.421875 31.78125 -1.421875 
Q 19.53125 -1.421875 13.0625 8.265625 
Q 6.59375 17.96875 6.59375 36.375 
Q 6.59375 54.828125 13.0625 64.515625 
Q 19.53125 74.21875 31.78125 74.21875 
z
" id="DejaVuSans-48"/>
      </defs>
      <g transform="translate(89.109659 329.598437)scale(0.1 -0.1)">
       <use xlink:href="#DejaVuSans-48"/>
      </g>
     </g>
    </g>
    <g id="xtick_2">
     <g id="line2d_2">
      <g>
       <use style="stroke:#000000;stroke-width:0.8;" x="144.318881" xlink:href="#m4a64352fa3" y="315"/>
      </g>
     </g>
     <g id="text_2">
      <!-- 5 -->
      <defs>
       <path d="M 10.796875 72.90625 
L 49.515625 72.90625 
L 49.515625 64.59375 
L 19.828125 64.59375 
L 19.828125 46.734375 
Q 21.96875 47.46875 24.109375 47.828125 
Q 26.265625 48.1875 28.421875 48.1875 
Q 40.625 48.1875 47.75 41.5 
Q 54.890625 34.8125 54.890625 23.390625 
Q 54.890625 11.625 47.5625 5.09375 
Q 40.234375 -1.421875 26.90625 -1.421875 
Q 22.3125 -1.421875 17.546875 -0.640625 
Q 12.796875 0.140625 7.71875 1.703125 
L 7.71875 11.625 
Q 12.109375 9.234375 16.796875 8.0625 
Q 21.484375 6.890625 26.703125 6.890625 
Q 35.15625 6.890625 40.078125 11.328125 
Q 45.015625 15.765625 45.015625 23.390625 
Q 45.015625 31 40.078125 35.4375 
Q 35.15625 39.890625 26.703125 39.890625 
Q 22.75 39.890625 18.8125 39.015625 
Q 14.890625 38.140625 10.796875 36.28125 
z
" id="DejaVuSans-53"/>
      </defs>
      <g transform="translate(141.137631 329.598437)scale(0.1 -0.1)">
       <use xlink:href="#DejaVuSans-53"/>
      </g>
     </g>
    </g>
    <g id="xtick_3">
     <g id="line2d_3">
      <g>
       <use style="stroke:#000000;stroke-width:0.8;" x="196.346853" xlink:href="#m4a64352fa3" y="315"/>
      </g>
     </g>
     <g id="text_3">
      <!-- 10 -->
      <defs>
       <path d="M 12.40625 8.296875 
L 28.515625 8.296875 
L 28.515625 63.921875 
L 10.984375 60.40625 
L 10.984375 69.390625 
L 28.421875 72.90625 
L 38.28125 72.90625 
L 38.28125 8.296875 
L 54.390625 8.296875 
L 54.390625 0 
L 12.40625 0 
z
" id="DejaVuSans-49"/>
      </defs>
      <g transform="translate(189.984353 329.598437)scale(0.1 -0.1)">
       <use xlink:href="#DejaVuSans-49"/>
       <use x="63.623047" xlink:href="#DejaVuSans-48"/>
      </g>
     </g>
    </g>
    <g id="xtick_4">
     <g id="line2d_4">
      <g>
       <use style="stroke:#000000;stroke-width:0.8;" x="248.374825" xlink:href="#m4a64352fa3" y="315"/>
      </g>
     </g>
     <g id="text_4">
      <!-- 15 -->
      <g transform="translate(242.012325 329.598437)scale(0.1 -0.1)">
       <use xlink:href="#DejaVuSans-49"/>
       <use x="63.623047" xlink:href="#DejaVuSans-53"/>
      </g>
     </g>
    </g>
    <g id="xtick_5">
     <g id="line2d_5">
      <g>
       <use style="stroke:#000000;stroke-width:0.8;" x="300.402797" xlink:href="#m4a64352fa3" y="315"/>
      </g>
     </g>
     <g id="text_5">
      <!-- 20 -->
      <defs>
       <path d="M 19.1875 8.296875 
L 53.609375 8.296875 
L 53.609375 0 
L 7.328125 0 
L 7.328125 8.296875 
Q 12.9375 14.109375 22.625 23.890625 
Q 32.328125 33.6875 34.8125 36.53125 
Q 39.546875 41.84375 41.421875 45.53125 
Q 43.3125 49.21875 43.3125 52.78125 
Q 43.3125 58.59375 39.234375 62.25 
Q 35.15625 65.921875 28.609375 65.921875 
Q 23.96875 65.921875 18.8125 64.3125 
Q 13.671875 62.703125 7.8125 59.421875 
L 7.8125 69.390625 
Q 13.765625 71.78125 18.9375 73 
Q 24.125 74.21875 28.421875 74.21875 
Q 39.75 74.21875 46.484375 68.546875 
Q 53.21875 62.890625 53.21875 53.421875 
Q 53.21875 48.921875 51.53125 44.890625 
Q 49.859375 40.875 45.40625 35.40625 
Q 44.1875 33.984375 37.640625 27.21875 
Q 31.109375 20.453125 19.1875 8.296875 
z
" id="DejaVuSans-50"/>
      </defs>
      <g transform="translate(294.040297 329.598437)scale(0.1 -0.1)">
       <use xlink:href="#DejaVuSans-50"/>
       <use x="63.623047" xlink:href="#DejaVuSans-48"/>
      </g>
     </g>
    </g>
    <g id="xtick_6">
     <g id="line2d_6">
      <g>
       <use style="stroke:#000000;stroke-width:0.8;" x="352.430769" xlink:href="#m4a64352fa3" y="315"/>
      </g>
     </g>
     <g id="text_6">
      <!-- 25 -->
      <g transform="translate(346.068269 329.598437)scale(0.1 -0.1)">
       <use xlink:href="#DejaVuSans-50"/>
       <use x="63.623047" xlink:href="#DejaVuSans-53"/>
      </g>
     </g>
    </g>
    <g id="xtick_7">
     <g id="line2d_7">
      <g>
       <use style="stroke:#000000;stroke-width:0.8;" x="404.458741" xlink:href="#m4a64352fa3" y="315"/>
      </g>
     </g>
     <g id="text_7">
      <!-- 30 -->
      <defs>
       <path d="M 40.578125 39.3125 
Q 47.65625 37.796875 51.625 33 
Q 55.609375 28.21875 55.609375 21.1875 
Q 55.609375 10.40625 48.1875 4.484375 
Q 40.765625 -1.421875 27.09375 -1.421875 
Q 22.515625 -1.421875 17.65625 -0.515625 
Q 12.796875 0.390625 7.625 2.203125 
L 7.625 11.71875 
Q 11.71875 9.328125 16.59375 8.109375 
Q 21.484375 6.890625 26.8125 6.890625 
Q 36.078125 6.890625 40.9375 10.546875 
Q 45.796875 14.203125 45.796875 21.1875 
Q 45.796875 27.640625 41.28125 31.265625 
Q 36.765625 34.90625 28.71875 34.90625 
L 20.21875 34.90625 
L 20.21875 43.015625 
L 29.109375 43.015625 
Q 36.375 43.015625 40.234375 45.921875 
Q 44.09375 48.828125 44.09375 54.296875 
Q 44.09375 59.90625 40.109375 62.90625 
Q 36.140625 65.921875 28.71875 65.921875 
Q 24.65625 65.921875 20.015625 65.03125 
Q 15.375 64.15625 9.8125 62.3125 
L 9.8125 71.09375 
Q 15.4375 72.65625 20.34375 73.4375 
Q 25.25 74.21875 29.59375 74.21875 
Q 40.828125 74.21875 47.359375 69.109375 
Q 53.90625 64.015625 53.90625 55.328125 
Q 53.90625 49.265625 50.4375 45.09375 
Q 46.96875 40.921875 40.578125 39.3125 
z
" id="DejaVuSans-51"/>
      </defs>
      <g transform="translate(398.096241 329.598437)scale(0.1 -0.1)">
       <use xlink:href="#DejaVuSans-51"/>
       <use x="63.623047" xlink:href="#DejaVuSans-48"/>
      </g>
     </g>
    </g>
    <g id="xtick_8">
     <g id="line2d_8">
      <g>
       <use style="stroke:#000000;stroke-width:0.8;" x="456.486713" xlink:href="#m4a64352fa3" y="315"/>
      </g>
     </g>
     <g id="text_8">
      <!-- 35 -->
      <g transform="translate(450.124213 329.598437)scale(0.1 -0.1)">
       <use xlink:href="#DejaVuSans-51"/>
       <use x="63.623047" xlink:href="#DejaVuSans-53"/>
      </g>
     </g>
    </g>
    <g id="xtick_9">
     <g id="line2d_9">
      <g>
       <use style="stroke:#000000;stroke-width:0.8;" x="508.514685" xlink:href="#m4a64352fa3" y="315"/>
      </g>
     </g>
     <g id="text_9">
      <!-- 40 -->
      <defs>
       <path d="M 37.796875 64.3125 
L 12.890625 25.390625 
L 37.796875 25.390625 
z
M 35.203125 72.90625 
L 47.609375 72.90625 
L 47.609375 25.390625 
L 58.015625 25.390625 
L 58.015625 17.1875 
L 47.609375 17.1875 
L 47.609375 0 
L 37.796875 0 
L 37.796875 17.1875 
L 4.890625 17.1875 
L 4.890625 26.703125 
z
" id="DejaVuSans-52"/>
      </defs>
      <g transform="translate(502.152185 329.598437)scale(0.1 -0.1)">
       <use xlink:href="#DejaVuSans-52"/>
       <use x="63.623047" xlink:href="#DejaVuSans-48"/>
      </g>
     </g>
    </g>
    <g id="text_10">
     <!-- generation -->
     <defs>
      <path d="M 45.40625 27.984375 
Q 45.40625 37.75 41.375 43.109375 
Q 37.359375 48.484375 30.078125 48.484375 
Q 22.859375 48.484375 18.828125 43.109375 
Q 14.796875 37.75 14.796875 27.984375 
Q 14.796875 18.265625 18.828125 12.890625 
Q 22.859375 7.515625 30.078125 7.515625 
Q 37.359375 7.515625 41.375 12.890625 
Q 45.40625 18.265625 45.40625 27.984375 
z
M 54.390625 6.78125 
Q 54.390625 -7.171875 48.1875 -13.984375 
Q 42 -20.796875 29.203125 -20.796875 
Q 24.46875 -20.796875 20.265625 -20.09375 
Q 16.0625 -19.390625 12.109375 -17.921875 
L 12.109375 -9.1875 
Q 16.0625 -11.328125 19.921875 -12.34375 
Q 23.78125 -13.375 27.78125 -13.375 
Q 36.625 -13.375 41.015625 -8.765625 
Q 45.40625 -4.15625 45.40625 5.171875 
L 45.40625 9.625 
Q 42.625 4.78125 38.28125 2.390625 
Q 33.9375 0 27.875 0 
Q 17.828125 0 11.671875 7.65625 
Q 5.515625 15.328125 5.515625 27.984375 
Q 5.515625 40.671875 11.671875 48.328125 
Q 17.828125 56 27.875 56 
Q 33.9375 56 38.28125 53.609375 
Q 42.625 51.21875 45.40625 46.390625 
L 45.40625 54.6875 
L 54.390625 54.6875 
z
" id="DejaVuSans-103"/>
      <path d="M 56.203125 29.59375 
L 56.203125 25.203125 
L 14.890625 25.203125 
Q 15.484375 15.921875 20.484375 11.0625 
Q 25.484375 6.203125 34.421875 6.203125 
Q 39.59375 6.203125 44.453125 7.46875 
Q 49.3125 8.734375 54.109375 11.28125 
L 54.109375 2.78125 
Q 49.265625 0.734375 44.1875 -0.34375 
Q 39.109375 -1.421875 33.890625 -1.421875 
Q 20.796875 -1.421875 13.15625 6.1875 
Q 5.515625 13.8125 5.515625 26.8125 
Q 5.515625 40.234375 12.765625 48.109375 
Q 20.015625 56 32.328125 56 
Q 43.359375 56 49.78125 48.890625 
Q 56.203125 41.796875 56.203125 29.59375 
z
M 47.21875 32.234375 
Q 47.125 39.59375 43.09375 43.984375 
Q 39.0625 48.390625 32.421875 48.390625 
Q 24.90625 48.390625 20.390625 44.140625 
Q 15.875 39.890625 15.1875 32.171875 
z
" id="DejaVuSans-101"/>
      <path d="M 54.890625 33.015625 
L 54.890625 0 
L 45.90625 0 
L 45.90625 32.71875 
Q 45.90625 40.484375 42.875 44.328125 
Q 39.84375 48.1875 33.796875 48.1875 
Q 26.515625 48.1875 22.3125 43.546875 
Q 18.109375 38.921875 18.109375 30.90625 
L 18.109375 0 
L 9.078125 0 
L 9.078125 54.6875 
L 18.109375 54.6875 
L 18.109375 46.1875 
Q 21.34375 51.125 25.703125 53.5625 
Q 30.078125 56 35.796875 56 
Q 45.21875 56 50.046875 50.171875 
Q 54.890625 44.34375 54.890625 33.015625 
z
" id="DejaVuSans-110"/>
      <path d="M 41.109375 46.296875 
Q 39.59375 47.171875 37.8125 47.578125 
Q 36.03125 48 33.890625 48 
Q 26.265625 48 22.1875 43.046875 
Q 18.109375 38.09375 18.109375 28.8125 
L 18.109375 0 
L 9.078125 0 
L 9.078125 54.6875 
L 18.109375 54.6875 
L 18.109375 46.1875 
Q 20.953125 51.171875 25.484375 53.578125 
Q 30.03125 56 36.53125 56 
Q 37.453125 56 38.578125 55.875 
Q 39.703125 55.765625 41.0625 55.515625 
z
" id="DejaVuSans-114"/>
      <path d="M 34.28125 27.484375 
Q 23.390625 27.484375 19.1875 25 
Q 14.984375 22.515625 14.984375 16.5 
Q 14.984375 11.71875 18.140625 8.90625 
Q 21.296875 6.109375 26.703125 6.109375 
Q 34.1875 6.109375 38.703125 11.40625 
Q 43.21875 16.703125 43.21875 25.484375 
L 43.21875 27.484375 
z
M 52.203125 31.203125 
L 52.203125 0 
L 43.21875 0 
L 43.21875 8.296875 
Q 40.140625 3.328125 35.546875 0.953125 
Q 30.953125 -1.421875 24.3125 -1.421875 
Q 15.921875 -1.421875 10.953125 3.296875 
Q 6 8.015625 6 15.921875 
Q 6 25.140625 12.171875 29.828125 
Q 18.359375 34.515625 30.609375 34.515625 
L 43.21875 34.515625 
L 43.21875 35.40625 
Q 43.21875 41.609375 39.140625 45 
Q 35.0625 48.390625 27.6875 48.390625 
Q 23 48.390625 18.546875 47.265625 
Q 14.109375 46.140625 10.015625 43.890625 
L 10.015625 52.203125 
Q 14.9375 54.109375 19.578125 55.046875 
Q 24.21875 56 28.609375 56 
Q 40.484375 56 46.34375 49.84375 
Q 52.203125 43.703125 52.203125 31.203125 
z
" id="DejaVuSans-97"/>
      <path d="M 18.3125 70.21875 
L 18.3125 54.6875 
L 36.8125 54.6875 
L 36.8125 47.703125 
L 18.3125 47.703125 
L 18.3125 18.015625 
Q 18.3125 11.328125 20.140625 9.421875 
Q 21.96875 7.515625 27.59375 7.515625 
L 36.8125 7.515625 
L 36.8125 0 
L 27.59375 0 
Q 17.1875 0 13.234375 3.875 
Q 9.28125 7.765625 9.28125 18.015625 
L 9.28125 47.703125 
L 2.6875 47.703125 
L 2.6875 54.6875 
L 9.28125 54.6875 
L 9.28125 70.21875 
z
" id="DejaVuSans-116"/>
      <path d="M 9.421875 54.6875 
L 18.40625 54.6875 
L 18.40625 0 
L 9.421875 0 
z
M 9.421875 75.984375 
L 18.40625 75.984375 
L 18.40625 64.59375 
L 9.421875 64.59375 
z
" id="DejaVuSans-105"/>
      <path d="M 30.609375 48.390625 
Q 23.390625 48.390625 19.1875 42.75 
Q 14.984375 37.109375 14.984375 27.296875 
Q 14.984375 17.484375 19.15625 11.84375 
Q 23.34375 6.203125 30.609375 6.203125 
Q 37.796875 6.203125 41.984375 11.859375 
Q 46.1875 17.53125 46.1875 27.296875 
Q 46.1875 37.015625 41.984375 42.703125 
Q 37.796875 48.390625 30.609375 48.390625 
z
M 30.609375 56 
Q 42.328125 56 49.015625 48.375 
Q 55.71875 40.765625 55.71875 27.296875 
Q 55.71875 13.875 49.015625 6.21875 
Q 42.328125 -1.421875 30.609375 -1.421875 
Q 18.84375 -1.421875 12.171875 6.21875 
Q 5.515625 13.875 5.515625 27.296875 
Q 5.515625 40.765625 12.171875 48.375 
Q 18.84375 56 30.609375 56 
z
" id="DejaVuSans-111"/>
     </defs>
     <g transform="translate(268.007031 343.276563)scale(0.1 -0.1)">
      <use xlink:href="#DejaVuSans-103"/>
      <use x="63.476562" xlink:href="#DejaVuSans-101"/>
      <use x="125" xlink:href="#DejaVuSans-110"/>
      <use x="188.378906" xlink:href="#DejaVuSans-101"/>
      <use x="249.902344" xlink:href="#DejaVuSans-114"/>
      <use x="291.015625" xlink:href="#DejaVuSans-97"/>
      <use x="352.294922" xlink:href="#DejaVuSans-116"/>
      <use x="391.503906" xlink:href="#DejaVuSans-105"/>
      <use x="419.287109" xlink:href="#DejaVuSans-111"/>
      <use x="480.46875" xlink:href="#DejaVuSans-110"/>
     </g>
    </g>
   </g>
   <g id="matplotlib.axis_2">
    <g id="ytick_1">
     <g id="line2d_10">
      <defs>
       <path d="M 0 0 
L -3.5 0 
" id="m06ca69e60a" style="stroke:#000000;stroke-width:0.8;"/>
      </defs>
      <g>
       <use style="stroke:#000000;stroke-width:0.8;" x="72" xlink:href="#m06ca69e60a" y="304.08203"/>
      </g>
     </g>
     <g id="text_11">
      <!-- −400 -->
      <defs>
       <path d="M 10.59375 35.5 
L 73.1875 35.5 
L 73.1875 27.203125 
L 10.59375 27.203125 
z
" id="DejaVuSans-8722"/>
      </defs>
      <g transform="translate(37.532812 307.881248)scale(0.1 -0.1)">
       <use xlink:href="#DejaVuSans-8722"/>
       <use x="83.789062" xlink:href="#DejaVuSans-52"/>
       <use x="147.412109" xlink:href="#DejaVuSans-48"/>
       <use x="211.035156" xlink:href="#DejaVuSans-48"/>
      </g>
     </g>
    </g>
    <g id="ytick_2">
     <g id="line2d_11">
      <g>
       <use style="stroke:#000000;stroke-width:0.8;" x="72" xlink:href="#m06ca69e60a" y="246.619027"/>
      </g>
     </g>
     <g id="text_12">
      <!-- −200 -->
      <g transform="translate(37.532812 250.418246)scale(0.1 -0.1)">
       <use xlink:href="#DejaVuSans-8722"/>
       <use x="83.789062" xlink:href="#DejaVuSans-50"/>
       <use x="147.412109" xlink:href="#DejaVuSans-48"/>
       <use x="211.035156" xlink:href="#DejaVuSans-48"/>
      </g>
     </g>
    </g>
    <g id="ytick_3">
     <g id="line2d_12">
      <g>
       <use style="stroke:#000000;stroke-width:0.8;" x="72" xlink:href="#m06ca69e60a" y="189.156025"/>
      </g>
     </g>
     <g id="text_13">
      <!-- 0 -->
      <g transform="translate(58.6375 192.955244)scale(0.1 -0.1)">
       <use xlink:href="#DejaVuSans-48"/>
      </g>
     </g>
    </g>
    <g id="ytick_4">
     <g id="line2d_13">
      <g>
       <use style="stroke:#000000;stroke-width:0.8;" x="72" xlink:href="#m06ca69e60a" y="131.693023"/>
      </g>
     </g>
     <g id="text_14">
      <!-- 200 -->
      <g transform="translate(45.9125 135.492242)scale(0.1 -0.1)">
       <use xlink:href="#DejaVuSans-50"/>
       <use x="63.623047" xlink:href="#DejaVuSans-48"/>
       <use x="127.246094" xlink:href="#DejaVuSans-48"/>
      </g>
     </g>
    </g>
    <g id="ytick_5">
     <g id="line2d_14">
      <g>
       <use style="stroke:#000000;stroke-width:0.8;" x="72" xlink:href="#m06ca69e60a" y="74.230021"/>
      </g>
     </g>
     <g id="text_15">
      <!-- 400 -->
      <g transform="translate(45.9125 78.02924)scale(0.1 -0.1)">
       <use xlink:href="#DejaVuSans-52"/>
       <use x="63.623047" xlink:href="#DejaVuSans-48"/>
       <use x="127.246094" xlink:href="#DejaVuSans-48"/>
      </g>
     </g>
    </g>
    <g id="text_16">
     <!-- cumulative reward -->
     <defs>
      <path d="M 48.78125 52.59375 
L 48.78125 44.1875 
Q 44.96875 46.296875 41.140625 47.34375 
Q 37.3125 48.390625 33.40625 48.390625 
Q 24.65625 48.390625 19.8125 42.84375 
Q 14.984375 37.3125 14.984375 27.296875 
Q 14.984375 17.28125 19.8125 11.734375 
Q 24.65625 6.203125 33.40625 6.203125 
Q 37.3125 6.203125 41.140625 7.25 
Q 44.96875 8.296875 48.78125 10.40625 
L 48.78125 2.09375 
Q 45.015625 0.34375 40.984375 -0.53125 
Q 36.96875 -1.421875 32.421875 -1.421875 
Q 20.0625 -1.421875 12.78125 6.34375 
Q 5.515625 14.109375 5.515625 27.296875 
Q 5.515625 40.671875 12.859375 48.328125 
Q 20.21875 56 33.015625 56 
Q 37.15625 56 41.109375 55.140625 
Q 45.0625 54.296875 48.78125 52.59375 
z
" id="DejaVuSans-99"/>
      <path d="M 8.5 21.578125 
L 8.5 54.6875 
L 17.484375 54.6875 
L 17.484375 21.921875 
Q 17.484375 14.15625 20.5 10.265625 
Q 23.53125 6.390625 29.59375 6.390625 
Q 36.859375 6.390625 41.078125 11.03125 
Q 45.3125 15.671875 45.3125 23.6875 
L 45.3125 54.6875 
L 54.296875 54.6875 
L 54.296875 0 
L 45.3125 0 
L 45.3125 8.40625 
Q 42.046875 3.421875 37.71875 1 
Q 33.40625 -1.421875 27.6875 -1.421875 
Q 18.265625 -1.421875 13.375 4.4375 
Q 8.5 10.296875 8.5 21.578125 
z
M 31.109375 56 
z
" id="DejaVuSans-117"/>
      <path d="M 52 44.1875 
Q 55.375 50.25 60.0625 53.125 
Q 64.75 56 71.09375 56 
Q 79.640625 56 84.28125 50.015625 
Q 88.921875 44.046875 88.921875 33.015625 
L 88.921875 0 
L 79.890625 0 
L 79.890625 32.71875 
Q 79.890625 40.578125 77.09375 44.375 
Q 74.3125 48.1875 68.609375 48.1875 
Q 61.625 48.1875 57.5625 43.546875 
Q 53.515625 38.921875 53.515625 30.90625 
L 53.515625 0 
L 44.484375 0 
L 44.484375 32.71875 
Q 44.484375 40.625 41.703125 44.40625 
Q 38.921875 48.1875 33.109375 48.1875 
Q 26.21875 48.1875 22.15625 43.53125 
Q 18.109375 38.875 18.109375 30.90625 
L 18.109375 0 
L 9.078125 0 
L 9.078125 54.6875 
L 18.109375 54.6875 
L 18.109375 46.1875 
Q 21.1875 51.21875 25.484375 53.609375 
Q 29.78125 56 35.6875 56 
Q 41.65625 56 45.828125 52.96875 
Q 50 49.953125 52 44.1875 
z
" id="DejaVuSans-109"/>
      <path d="M 9.421875 75.984375 
L 18.40625 75.984375 
L 18.40625 0 
L 9.421875 0 
z
" id="DejaVuSans-108"/>
      <path d="M 2.984375 54.6875 
L 12.5 54.6875 
L 29.59375 8.796875 
L 46.6875 54.6875 
L 56.203125 54.6875 
L 35.6875 0 
L 23.484375 0 
z
" id="DejaVuSans-118"/>
      <path id="DejaVuSans-32"/>
      <path d="M 4.203125 54.6875 
L 13.1875 54.6875 
L 24.421875 12.015625 
L 35.59375 54.6875 
L 46.1875 54.6875 
L 57.421875 12.015625 
L 68.609375 54.6875 
L 77.59375 54.6875 
L 63.28125 0 
L 52.6875 0 
L 40.921875 44.828125 
L 29.109375 0 
L 18.5 0 
z
" id="DejaVuSans-119"/>
      <path d="M 45.40625 46.390625 
L 45.40625 75.984375 
L 54.390625 75.984375 
L 54.390625 0 
L 45.40625 0 
L 45.40625 8.203125 
Q 42.578125 3.328125 38.25 0.953125 
Q 33.9375 -1.421875 27.875 -1.421875 
Q 17.96875 -1.421875 11.734375 6.484375 
Q 5.515625 14.40625 5.515625 27.296875 
Q 5.515625 40.1875 11.734375 48.09375 
Q 17.96875 56 27.875 56 
Q 33.9375 56 38.25 53.625 
Q 42.578125 51.265625 45.40625 46.390625 
z
M 14.796875 27.296875 
Q 14.796875 17.390625 18.875 11.75 
Q 22.953125 6.109375 30.078125 6.109375 
Q 37.203125 6.109375 41.296875 11.75 
Q 45.40625 17.390625 45.40625 27.296875 
Q 45.40625 37.203125 41.296875 42.84375 
Q 37.203125 48.484375 30.078125 48.484375 
Q 22.953125 48.484375 18.875 42.84375 
Q 14.796875 37.203125 14.796875 27.296875 
z
" id="DejaVuSans-100"/>
     </defs>
     <g transform="translate(31.453125 225.996875)rotate(-90)scale(0.1 -0.1)">
      <use xlink:href="#DejaVuSans-99"/>
      <use x="54.980469" xlink:href="#DejaVuSans-117"/>
      <use x="118.359375" xlink:href="#DejaVuSans-109"/>
      <use x="215.771484" xlink:href="#DejaVuSans-117"/>
      <use x="279.150391" xlink:href="#DejaVuSans-108"/>
      <use x="306.933594" xlink:href="#DejaVuSans-97"/>
      <use x="368.212891" xlink:href="#DejaVuSans-116"/>
      <use x="407.421875" xlink:href="#DejaVuSans-105"/>
      <use x="435.205078" xlink:href="#DejaVuSans-118"/>
      <use x="494.384766" xlink:href="#DejaVuSans-101"/>
      <use x="555.908203" xlink:href="#DejaVuSans-32"/>
      <use x="587.695312" xlink:href="#DejaVuSans-114"/>
      <use x="628.777344" xlink:href="#DejaVuSans-101"/>
      <use x="690.300781" xlink:href="#DejaVuSans-119"/>
      <use x="772.087891" xlink:href="#DejaVuSans-97"/>
      <use x="833.367188" xlink:href="#DejaVuSans-114"/>
      <use x="874.464844" xlink:href="#DejaVuSans-100"/>
     </g>
    </g>
   </g>
   <g id="line2d_15">
    <path clip-path="url(#p7d7191174f)" d="M 92.290909 223.17093 
L 102.696503 214.743023 
L 113.102098 199.611099 
L 123.507692 207.145137 
L 133.913287 210.560994 
L 144.318881 205.389323 
L 154.724476 194.455391 
L 165.13007 213.162791 
L 175.535664 195.812156 
L 185.941259 194.184038 
L 196.346853 181.270825 
L 206.752448 204.319873 
L 217.158042 195.189641 
L 227.563636 198.605497 
L 237.969231 189.315645 
L 248.374825 197.8074 
L 258.78042 188.996406 
L 269.186014 197.009302 
L 279.591608 190.480867 
L 289.997203 184.032241 
L 300.402797 194.152114 
L 310.808392 189.347569 
L 321.213986 185.50074 
L 331.61958 180.82389 
L 342.025175 169.458985 
L 352.430769 177.423996 
L 362.836364 185.325159 
L 373.241958 181.542178 
L 383.647552 181.717759 
L 394.053147 174.167759 
L 404.458741 158.030233 
L 414.864336 165.213108 
L 425.26993 170.161311 
L 435.675524 174.040063 
L 446.081119 175.747992 
L 456.486713 167.304123 
L 466.892308 165.292918 
L 477.297902 154.039746 
L 487.703497 181.606025 
L 498.109091 154.103594 
" style="fill:none;stroke:#ffa500;stroke-linecap:square;stroke-width:1.5;"/>
   </g>
   <g id="line2d_16">
    <path clip-path="url(#p7d7191174f)" d="M 92.290909 230.098414 
L 102.696503 228.550106 
L 113.102098 214.822833 
L 123.507692 205.309514 
L 133.913287 219.611416 
L 144.318881 206.091649 
L 154.724476 205.133932 
L 165.13007 201.239218 
L 175.535664 204.431607 
L 185.941259 208.278436 
L 196.346853 192.300529 
L 206.752448 193.066702 
L 217.158042 207.57611 
L 227.563636 183.234144 
L 237.969231 195.668499 
L 248.374825 198.573573 
L 258.78042 181.765645 
L 269.186014 178.110359 
L 279.591608 184.878224 
L 289.997203 186.394609 
L 300.402797 184.92611 
L 310.808392 185.404968 
L 321.213986 182.260465 
L 331.61958 183.074524 
L 342.025175 183.872622 
L 352.430769 177.551691 
" style="fill:none;stroke:#ff0000;stroke-linecap:square;stroke-width:1.5;"/>
   </g>
   <g id="line2d_17">
    <path clip-path="url(#p7d7191174f)" d="M 92.290909 218.749471 
L 102.696503 219.004863 
L 113.102098 232.285201 
L 123.507692 218.621776 
L 133.913287 217.536364 
L 144.318881 214.774947 
L 154.724476 215.684778 
L 165.13007 220.29778 
L 175.535664 215.589006 
L 185.941259 209.507505 
L 196.346853 214.072622 
L 206.752448 209.315962 
L 217.158042 204.240063 
L 227.563636 202.372516 
L 237.969231 207.065328 
L 248.374825 210.52907 
L 258.78042 198.781078 
L 269.186014 207.368605 
L 279.591608 197.136998 
L 289.997203 200.409197 
L 300.402797 202.356554 
L 310.808392 185.708245 
L 321.213986 192.3963 
L 331.61958 201.382875 
L 342.025175 206.586469 
L 352.430769 191.374736 
L 362.836364 189.10814 
L 373.241958 205.836258 
L 383.647552 198.318182 
L 394.053147 197.136998 
L 404.458741 195.445032 
L 414.864336 192.364376 
L 425.26993 194.215962 
L 435.675524 188.022727 
L 446.081119 186.841543 
" style="fill:none;stroke:#0000ff;stroke-linecap:square;stroke-width:1.5;"/>
   </g>
   <g id="line2d_18">
    <path clip-path="url(#p7d7191174f)" d="M 92.290909 217.815698 
L 102.696503 217.815698 
L 113.102098 217.815698 
L 123.507692 217.815698 
L 133.913287 217.815698 
L 144.318881 217.815698 
L 154.724476 217.815698 
L 165.13007 217.815698 
L 175.535664 217.815698 
L 185.941259 217.815698 
L 196.346853 217.815698 
L 206.752448 217.815698 
L 217.158042 217.815698 
L 227.563636 217.815698 
L 237.969231 217.815698 
L 248.374825 217.815698 
L 258.78042 217.815698 
L 269.186014 217.815698 
L 279.591608 217.815698 
L 289.997203 217.815698 
L 300.402797 217.815698 
L 310.808392 217.815698 
L 321.213986 217.815698 
L 331.61958 217.815698 
L 342.025175 217.815698 
L 352.430769 217.815698 
L 362.836364 217.815698 
" style="fill:none;stroke:#000000;stroke-dasharray:5.55,2.4;stroke-dashoffset:0;stroke-width:1.5;"/>
   </g>
   <g id="patch_3">
    <path d="M 72 315 
L 72 43.2 
" style="fill:none;stroke:#000000;stroke-linecap:square;stroke-linejoin:miter;stroke-width:0.8;"/>
   </g>
   <g id="patch_4">
    <path d="M 518.4 315 
L 518.4 43.2 
" style="fill:none;stroke:#000000;stroke-linecap:square;stroke-linejoin:miter;stroke-width:0.8;"/>
   </g>
   <g id="patch_5">
    <path d="M 72 315 
L 518.4 315 
" style="fill:none;stroke:#000000;stroke-linecap:square;stroke-linejoin:miter;stroke-width:0.8;"/>
   </g>
   <g id="patch_6">
    <path d="M 72 43.2 
L 518.4 43.2 
" style="fill:none;stroke:#000000;stroke-linecap:square;stroke-linejoin:miter;stroke-width:0.8;"/>
   </g>
   <g id="text_17">
    <!-- Controllers progress through the generations only z -->
    <defs>
     <path d="M 64.40625 67.28125 
L 64.40625 56.890625 
Q 59.421875 61.53125 53.78125 63.8125 
Q 48.140625 66.109375 41.796875 66.109375 
Q 29.296875 66.109375 22.65625 58.46875 
Q 16.015625 50.828125 16.015625 36.375 
Q 16.015625 21.96875 22.65625 14.328125 
Q 29.296875 6.6875 41.796875 6.6875 
Q 48.140625 6.6875 53.78125 8.984375 
Q 59.421875 11.28125 64.40625 15.921875 
L 64.40625 5.609375 
Q 59.234375 2.09375 53.4375 0.328125 
Q 47.65625 -1.421875 41.21875 -1.421875 
Q 24.65625 -1.421875 15.125 8.703125 
Q 5.609375 18.84375 5.609375 36.375 
Q 5.609375 53.953125 15.125 64.078125 
Q 24.65625 74.21875 41.21875 74.21875 
Q 47.75 74.21875 53.53125 72.484375 
Q 59.328125 70.75 64.40625 67.28125 
z
" id="DejaVuSans-67"/>
     <path d="M 44.28125 53.078125 
L 44.28125 44.578125 
Q 40.484375 46.53125 36.375 47.5 
Q 32.28125 48.484375 27.875 48.484375 
Q 21.1875 48.484375 17.84375 46.4375 
Q 14.5 44.390625 14.5 40.28125 
Q 14.5 37.15625 16.890625 35.375 
Q 19.28125 33.59375 26.515625 31.984375 
L 29.59375 31.296875 
Q 39.15625 29.25 43.1875 25.515625 
Q 47.21875 21.78125 47.21875 15.09375 
Q 47.21875 7.46875 41.1875 3.015625 
Q 35.15625 -1.421875 24.609375 -1.421875 
Q 20.21875 -1.421875 15.453125 -0.5625 
Q 10.6875 0.296875 5.421875 2 
L 5.421875 11.28125 
Q 10.40625 8.6875 15.234375 7.390625 
Q 20.0625 6.109375 24.8125 6.109375 
Q 31.15625 6.109375 34.5625 8.28125 
Q 37.984375 10.453125 37.984375 14.40625 
Q 37.984375 18.0625 35.515625 20.015625 
Q 33.0625 21.96875 24.703125 23.78125 
L 21.578125 24.515625 
Q 13.234375 26.265625 9.515625 29.90625 
Q 5.8125 33.546875 5.8125 39.890625 
Q 5.8125 47.609375 11.28125 51.796875 
Q 16.75 56 26.8125 56 
Q 31.78125 56 36.171875 55.265625 
Q 40.578125 54.546875 44.28125 53.078125 
z
" id="DejaVuSans-115"/>
     <path d="M 18.109375 8.203125 
L 18.109375 -20.796875 
L 9.078125 -20.796875 
L 9.078125 54.6875 
L 18.109375 54.6875 
L 18.109375 46.390625 
Q 20.953125 51.265625 25.265625 53.625 
Q 29.59375 56 35.59375 56 
Q 45.5625 56 51.78125 48.09375 
Q 58.015625 40.1875 58.015625 27.296875 
Q 58.015625 14.40625 51.78125 6.484375 
Q 45.5625 -1.421875 35.59375 -1.421875 
Q 29.59375 -1.421875 25.265625 0.953125 
Q 20.953125 3.328125 18.109375 8.203125 
z
M 48.6875 27.296875 
Q 48.6875 37.203125 44.609375 42.84375 
Q 40.53125 48.484375 33.40625 48.484375 
Q 26.265625 48.484375 22.1875 42.84375 
Q 18.109375 37.203125 18.109375 27.296875 
Q 18.109375 17.390625 22.1875 11.75 
Q 26.265625 6.109375 33.40625 6.109375 
Q 40.53125 6.109375 44.609375 11.75 
Q 48.6875 17.390625 48.6875 27.296875 
z
" id="DejaVuSans-112"/>
     <path d="M 54.890625 33.015625 
L 54.890625 0 
L 45.90625 0 
L 45.90625 32.71875 
Q 45.90625 40.484375 42.875 44.328125 
Q 39.84375 48.1875 33.796875 48.1875 
Q 26.515625 48.1875 22.3125 43.546875 
Q 18.109375 38.921875 18.109375 30.90625 
L 18.109375 0 
L 9.078125 0 
L 9.078125 75.984375 
L 18.109375 75.984375 
L 18.109375 46.1875 
Q 21.34375 51.125 25.703125 53.5625 
Q 30.078125 56 35.796875 56 
Q 45.21875 56 50.046875 50.171875 
Q 54.890625 44.34375 54.890625 33.015625 
z
" id="DejaVuSans-104"/>
     <path d="M 32.171875 -5.078125 
Q 28.375 -14.84375 24.75 -17.8125 
Q 21.140625 -20.796875 15.09375 -20.796875 
L 7.90625 -20.796875 
L 7.90625 -13.28125 
L 13.1875 -13.28125 
Q 16.890625 -13.28125 18.9375 -11.515625 
Q 21 -9.765625 23.484375 -3.21875 
L 25.09375 0.875 
L 2.984375 54.6875 
L 12.5 54.6875 
L 29.59375 11.921875 
L 46.6875 54.6875 
L 56.203125 54.6875 
z
" id="DejaVuSans-121"/>
     <path d="M 5.515625 54.6875 
L 48.1875 54.6875 
L 48.1875 46.484375 
L 14.40625 7.171875 
L 48.1875 7.171875 
L 48.1875 0 
L 4.296875 0 
L 4.296875 8.203125 
L 38.09375 47.515625 
L 5.515625 47.515625 
z
" id="DejaVuSans-122"/>
    </defs>
    <g transform="translate(139.678125 37.2)scale(0.12 -0.12)">
     <use xlink:href="#DejaVuSans-67"/>
     <use x="69.824219" xlink:href="#DejaVuSans-111"/>
     <use x="131.005859" xlink:href="#DejaVuSans-110"/>
     <use x="194.384766" xlink:href="#DejaVuSans-116"/>
     <use x="233.59375" xlink:href="#DejaVuSans-114"/>
     <use x="274.675781" xlink:href="#DejaVuSans-111"/>
     <use x="335.857422" xlink:href="#DejaVuSans-108"/>
     <use x="363.640625" xlink:href="#DejaVuSans-108"/>
     <use x="391.423828" xlink:href="#DejaVuSans-101"/>
     <use x="452.947266" xlink:href="#DejaVuSans-114"/>
     <use x="494.060547" xlink:href="#DejaVuSans-115"/>
     <use x="546.160156" xlink:href="#DejaVuSans-32"/>
     <use x="577.947266" xlink:href="#DejaVuSans-112"/>
     <use x="641.423828" xlink:href="#DejaVuSans-114"/>
     <use x="682.505859" xlink:href="#DejaVuSans-111"/>
     <use x="743.6875" xlink:href="#DejaVuSans-103"/>
     <use x="807.164062" xlink:href="#DejaVuSans-114"/>
     <use x="848.246094" xlink:href="#DejaVuSans-101"/>
     <use x="909.769531" xlink:href="#DejaVuSans-115"/>
     <use x="961.869141" xlink:href="#DejaVuSans-115"/>
     <use x="1013.96875" xlink:href="#DejaVuSans-32"/>
     <use x="1045.755859" xlink:href="#DejaVuSans-116"/>
     <use x="1084.964844" xlink:href="#DejaVuSans-104"/>
     <use x="1148.34375" xlink:href="#DejaVuSans-114"/>
     <use x="1189.425781" xlink:href="#DejaVuSans-111"/>
     <use x="1250.607422" xlink:href="#DejaVuSans-117"/>
     <use x="1313.986328" xlink:href="#DejaVuSans-103"/>
     <use x="1377.462891" xlink:href="#DejaVuSans-104"/>
     <use x="1440.841797" xlink:href="#DejaVuSans-32"/>
     <use x="1472.628906" xlink:href="#DejaVuSans-116"/>
     <use x="1511.837891" xlink:href="#DejaVuSans-104"/>
     <use x="1575.216797" xlink:href="#DejaVuSans-101"/>
     <use x="1636.740234" xlink:href="#DejaVuSans-32"/>
     <use x="1668.527344" xlink:href="#DejaVuSans-103"/>
     <use x="1732.003906" xlink:href="#DejaVuSans-101"/>
     <use x="1793.527344" xlink:href="#DejaVuSans-110"/>
     <use x="1856.90625" xlink:href="#DejaVuSans-101"/>
     <use x="1918.429688" xlink:href="#DejaVuSans-114"/>
     <use x="1959.542969" xlink:href="#DejaVuSans-97"/>
     <use x="2020.822266" xlink:href="#DejaVuSans-116"/>
     <use x="2060.03125" xlink:href="#DejaVuSans-105"/>
     <use x="2087.814453" xlink:href="#DejaVuSans-111"/>
     <use x="2148.996094" xlink:href="#DejaVuSans-110"/>
     <use x="2212.375" xlink:href="#DejaVuSans-115"/>
     <use x="2264.474609" xlink:href="#DejaVuSans-32"/>
     <use x="2296.261719" xlink:href="#DejaVuSans-111"/>
     <use x="2357.443359" xlink:href="#DejaVuSans-110"/>
     <use x="2420.822266" xlink:href="#DejaVuSans-108"/>
     <use x="2448.605469" xlink:href="#DejaVuSans-121"/>
     <use x="2507.785156" xlink:href="#DejaVuSans-32"/>
     <use x="2539.572266" xlink:href="#DejaVuSans-122"/>
    </g>
   </g>
   <g id="legend_1">
    <g id="patch_7">
     <path d="M 356.157812 109.9125 
L 511.4 109.9125 
Q 513.4 109.9125 513.4 107.9125 
L 513.4 50.2 
Q 513.4 48.2 511.4 48.2 
L 356.157812 48.2 
Q 354.157812 48.2 354.157812 50.2 
L 354.157812 107.9125 
Q 354.157812 109.9125 356.157812 109.9125 
z
" style="fill:#ffffff;opacity:0.8;stroke:#cccccc;stroke-linejoin:miter;"/>
    </g>
    <g id="line2d_19">
     <path d="M 358.157812 56.298437 
L 378.157812 56.298437 
" style="fill:none;stroke:#ffa500;stroke-linecap:square;stroke-width:1.5;"/>
    </g>
    <g id="line2d_20"/>
    <g id="text_18">
     <!-- softmax no hidden -->
     <defs>
      <path d="M 37.109375 75.984375 
L 37.109375 68.5 
L 28.515625 68.5 
Q 23.6875 68.5 21.796875 66.546875 
Q 19.921875 64.59375 19.921875 59.515625 
L 19.921875 54.6875 
L 34.71875 54.6875 
L 34.71875 47.703125 
L 19.921875 47.703125 
L 19.921875 0 
L 10.890625 0 
L 10.890625 47.703125 
L 2.296875 47.703125 
L 2.296875 54.6875 
L 10.890625 54.6875 
L 10.890625 58.5 
Q 10.890625 67.625 15.140625 71.796875 
Q 19.390625 75.984375 28.609375 75.984375 
z
" id="DejaVuSans-102"/>
      <path d="M 54.890625 54.6875 
L 35.109375 28.078125 
L 55.90625 0 
L 45.3125 0 
L 29.390625 21.484375 
L 13.484375 0 
L 2.875 0 
L 24.125 28.609375 
L 4.6875 54.6875 
L 15.28125 54.6875 
L 29.78125 35.203125 
L 44.28125 54.6875 
z
" id="DejaVuSans-120"/>
     </defs>
     <g transform="translate(386.157812 59.798437)scale(0.1 -0.1)">
      <use xlink:href="#DejaVuSans-115"/>
      <use x="52.099609" xlink:href="#DejaVuSans-111"/>
      <use x="113.28125" xlink:href="#DejaVuSans-102"/>
      <use x="148.470703" xlink:href="#DejaVuSans-116"/>
      <use x="187.679688" xlink:href="#DejaVuSans-109"/>
      <use x="285.091797" xlink:href="#DejaVuSans-97"/>
      <use x="346.371094" xlink:href="#DejaVuSans-120"/>
      <use x="405.550781" xlink:href="#DejaVuSans-32"/>
      <use x="437.337891" xlink:href="#DejaVuSans-110"/>
      <use x="500.716797" xlink:href="#DejaVuSans-111"/>
      <use x="561.898438" xlink:href="#DejaVuSans-32"/>
      <use x="593.685547" xlink:href="#DejaVuSans-104"/>
      <use x="657.064453" xlink:href="#DejaVuSans-105"/>
      <use x="684.847656" xlink:href="#DejaVuSans-100"/>
      <use x="748.324219" xlink:href="#DejaVuSans-100"/>
      <use x="811.800781" xlink:href="#DejaVuSans-101"/>
      <use x="873.324219" xlink:href="#DejaVuSans-110"/>
     </g>
    </g>
    <g id="line2d_21">
     <path d="M 358.157812 70.976562 
L 378.157812 70.976562 
" style="fill:none;stroke:#ff0000;stroke-linecap:square;stroke-width:1.5;"/>
    </g>
    <g id="line2d_22"/>
    <g id="text_19">
     <!-- argmax no hidden -->
     <g transform="translate(386.157812 74.476562)scale(0.1 -0.1)">
      <use xlink:href="#DejaVuSans-97"/>
      <use x="61.279297" xlink:href="#DejaVuSans-114"/>
      <use x="102.376953" xlink:href="#DejaVuSans-103"/>
      <use x="165.853516" xlink:href="#DejaVuSans-109"/>
      <use x="263.265625" xlink:href="#DejaVuSans-97"/>
      <use x="324.544922" xlink:href="#DejaVuSans-120"/>
      <use x="383.724609" xlink:href="#DejaVuSans-32"/>
      <use x="415.511719" xlink:href="#DejaVuSans-110"/>
      <use x="478.890625" xlink:href="#DejaVuSans-111"/>
      <use x="540.072266" xlink:href="#DejaVuSans-32"/>
      <use x="571.859375" xlink:href="#DejaVuSans-104"/>
      <use x="635.238281" xlink:href="#DejaVuSans-105"/>
      <use x="663.021484" xlink:href="#DejaVuSans-100"/>
      <use x="726.498047" xlink:href="#DejaVuSans-100"/>
      <use x="789.974609" xlink:href="#DejaVuSans-101"/>
      <use x="851.498047" xlink:href="#DejaVuSans-110"/>
     </g>
    </g>
    <g id="line2d_23">
     <path d="M 358.157812 85.654687 
L 378.157812 85.654687 
" style="fill:none;stroke:#0000ff;stroke-linecap:square;stroke-width:1.5;"/>
    </g>
    <g id="line2d_24"/>
    <g id="text_20">
     <!-- tanh no hidden -->
     <g transform="translate(386.157812 89.154687)scale(0.1 -0.1)">
      <use xlink:href="#DejaVuSans-116"/>
      <use x="39.208984" xlink:href="#DejaVuSans-97"/>
      <use x="100.488281" xlink:href="#DejaVuSans-110"/>
      <use x="163.867188" xlink:href="#DejaVuSans-104"/>
      <use x="227.246094" xlink:href="#DejaVuSans-32"/>
      <use x="259.033203" xlink:href="#DejaVuSans-110"/>
      <use x="322.412109" xlink:href="#DejaVuSans-111"/>
      <use x="383.59375" xlink:href="#DejaVuSans-32"/>
      <use x="415.380859" xlink:href="#DejaVuSans-104"/>
      <use x="478.759766" xlink:href="#DejaVuSans-105"/>
      <use x="506.542969" xlink:href="#DejaVuSans-100"/>
      <use x="570.019531" xlink:href="#DejaVuSans-100"/>
      <use x="633.496094" xlink:href="#DejaVuSans-101"/>
      <use x="695.019531" xlink:href="#DejaVuSans-110"/>
     </g>
    </g>
    <g id="line2d_25">
     <path d="M 358.157812 100.332812 
L 378.157812 100.332812 
" style="fill:none;stroke:#000000;stroke-dasharray:5.55,2.4;stroke-dashoffset:0;stroke-width:1.5;"/>
    </g>
    <g id="line2d_26"/>
    <g id="text_21">
     <!-- avg random policy score -->
     <g transform="translate(386.157812 103.832812)scale(0.1 -0.1)">
      <use xlink:href="#DejaVuSans-97"/>
      <use x="61.279297" xlink:href="#DejaVuSans-118"/>
      <use x="120.458984" xlink:href="#DejaVuSans-103"/>
      <use x="183.935547" xlink:href="#DejaVuSans-32"/>
      <use x="215.722656" xlink:href="#DejaVuSans-114"/>
      <use x="256.835938" xlink:href="#DejaVuSans-97"/>
      <use x="318.115234" xlink:href="#DejaVuSans-110"/>
      <use x="381.494141" xlink:href="#DejaVuSans-100"/>
      <use x="444.970703" xlink:href="#DejaVuSans-111"/>
      <use x="506.152344" xlink:href="#DejaVuSans-109"/>
      <use x="603.564453" xlink:href="#DejaVuSans-32"/>
      <use x="635.351562" xlink:href="#DejaVuSans-112"/>
      <use x="698.828125" xlink:href="#DejaVuSans-111"/>
      <use x="760.009766" xlink:href="#DejaVuSans-108"/>
      <use x="787.792969" xlink:href="#DejaVuSans-105"/>
      <use x="815.576172" xlink:href="#DejaVuSans-99"/>
      <use x="870.556641" xlink:href="#DejaVuSans-121"/>
      <use x="929.736328" xlink:href="#DejaVuSans-32"/>
      <use x="961.523438" xlink:href="#DejaVuSans-115"/>
      <use x="1013.623047" xlink:href="#DejaVuSans-99"/>
      <use x="1068.603516" xlink:href="#DejaVuSans-111"/>
      <use x="1129.785156" xlink:href="#DejaVuSans-114"/>
      <use x="1170.867188" xlink:href="#DejaVuSans-101"/>
     </g>
    </g>
   </g>
  </g>
 </g>
 <defs>
  <clipPath id="p7d7191174f">
   <rect height="271.8" width="446.4" x="72" y="43.2"/>
  </clipPath>
 </defs>
</svg>
